<svg width="35" height="35" viewBox="0 0 35 35" fill="none" xmlns="http://www.w3.org/2000/svg">
<g id="solar:login-3-bold">
<path id="Vector" fill-rule="evenodd" clip-rule="evenodd" d="M5.10547 13.9533V21.0467C5.10547 24.3921 5.10547 26.0633 6.15839 27.1031C7.11359 28.0467 8.59963 28.1327 11.4026 28.1415C11.3949 28.0905 11.3876 28.0394 11.3807 27.9883C11.213 26.7575 11.213 25.1942 11.213 23.2531V23.1758C11.213 22.5881 11.6957 22.1113 12.2921 22.1113C12.8871 22.1113 13.3698 22.5881 13.3698 23.1758C13.3698 25.2117 13.3713 26.6321 13.5171 27.704C13.6601 28.7452 13.9182 29.2979 14.3163 29.6902C14.7144 30.084 15.273 30.3392 16.3273 30.4777C17.4123 30.6235 18.8517 30.625 20.9153 30.625H22.3517C24.4153 30.625 25.8532 30.6221 26.9396 30.4792C27.994 30.3392 28.5526 30.0825 28.9492 29.6902C29.3473 29.2965 29.6069 28.7452 29.7484 27.704C29.8942 26.6335 29.8971 25.2117 29.8971 23.1758V11.8242C29.8971 9.78687 29.8942 8.36792 29.7484 7.29604C29.6069 6.25479 29.3473 5.70208 28.9507 5.30979C28.5526 4.91604 27.994 4.66083 26.9382 4.52229C25.8546 4.375 24.4167 4.375 22.3532 4.375H20.9167C18.8532 4.375 17.4138 4.37792 16.3288 4.52083C15.2744 4.66083 14.7159 4.9175 14.3178 5.30979C13.9196 5.70354 13.6615 6.25479 13.5186 7.29604C13.3728 8.36646 13.3713 9.78687 13.3713 11.8242C13.3713 12.4119 12.8886 12.8888 12.2921 12.8888C12.1514 12.8897 12.0119 12.8629 11.8816 12.8099C11.7513 12.7569 11.6327 12.6788 11.5326 12.5799C11.4325 12.481 11.3529 12.3634 11.2983 12.2337C11.2437 12.104 11.2152 11.9649 11.2144 11.8242V11.7469C11.2144 9.80729 11.2144 8.2425 11.3821 7.01167L11.404 6.85854C8.60109 6.86729 7.11651 6.95333 6.15984 7.89688C5.10693 8.93667 5.10547 10.6094 5.10547 13.9533ZM19.5211 21.7992L23.1144 18.2525C23.2144 18.1543 23.2939 18.0373 23.3481 17.908C23.4023 17.7788 23.4303 17.6401 23.4303 17.5C23.4303 17.3599 23.4023 17.2212 23.3481 17.092C23.2939 16.9628 23.2144 16.8457 23.1144 16.7475L19.5211 13.2008C19.3177 13.0012 19.0441 12.8894 18.7591 12.8894C18.4741 12.8894 18.2005 13.0012 17.9971 13.2008C17.8971 13.299 17.8177 13.4161 17.7635 13.5453C17.7092 13.6745 17.6813 13.8132 17.6813 13.9533C17.6813 14.0935 17.7092 14.2322 17.7635 14.3614C17.8177 14.4906 17.8971 14.6077 17.9971 14.7058L19.7501 16.4354H9.41776C9.27695 16.4343 9.13729 16.4609 9.00679 16.5138C8.87629 16.5667 8.75751 16.6449 8.65726 16.7438C8.55701 16.8427 8.47726 16.9604 8.42258 17.0901C8.3679 17.2199 8.33936 17.3592 8.33859 17.5C8.33859 18.0877 8.8213 18.5646 9.41776 18.5646H19.7501L17.9971 20.2942C17.8971 20.3923 17.8177 20.5094 17.7635 20.6386C17.7092 20.7678 17.6813 20.9065 17.6813 21.0467C17.6813 21.1868 17.7092 21.3255 17.7635 21.4547C17.8177 21.5839 17.8971 21.701 17.9971 21.7992C18.2005 21.9988 18.4741 22.1106 18.7591 22.1106C19.0441 22.1106 19.3177 21.9988 19.5211 21.7992Z" fill="white"/>
</g>
</svg>
